<svg width="704" height="405" viewBox="0 0 704 405" fill="none" xmlns="http://www.w3.org/2000/svg">
<g clip-path="url(#clip0_12_2)">
<path d="M703.406 0.0727539H0.498444V404.969H703.406V0.0727539Z" fill="#121023"/>
<path d="M144.887 16.2102L68.7098 59.0241L92.874 66.794L128.093 55.8992L152.753 26.9562L144.887 16.2102Z" fill="#0F2931" stroke="#006266" stroke-width="0.377953"/>
<path d="M118.014 63.6066L101.621 84.5671L87.5906 93.4105L45.073 84.6734L26.6959 110.821L37.2781 139.179L44.0809 144.621L19.5861 161.543L56.7417 150.552L70.678 141.475L102.684 178.422L103.417 191.134L104.527 192.07L119.526 224.747L134.384 235.249L128.691 219.539L145.58 245.368L163.697 253.106L179.57 265.095L178.98 297.449L195.113 309.502L189.541 386.202L208.248 400.317L217.933 359.119L270.058 305.487L270.743 281.614L241.028 272.558L218.895 253.652L184.173 253.014L176.189 236.943L162.583 236.135L158.213 225.4L175.905 223.061L183.015 229.502L190.432 227.823L186.724 216.96L207.557 191.365L232.926 179.822L240.579 174.082L240.5 171.25L223.36 146.042L216.58 130.013L207.746 133.839L193.007 124.38L184.362 151.335L167.071 142.832L173.709 122.126L185.354 103.695L171.961 89.7075L162.371 71.2554L155.166 94.6818L118.014 63.6066Z" fill="#0F2931" stroke="#006266" stroke-width="0.377953"/>
<path d="M173.614 76.8245L190.905 103.142L188.424 119.66L216.84 125.888L210.297 93.5547L173.614 76.8245Z" fill="#0F2931" stroke="#006266" stroke-width="0.377953"/>
<path d="M253.133 14.886L293.785 35.6339L276.849 99.5998L235.394 131.742L215.34 77.4701L194.27 68.5417L219.426 29.4266L253.133 14.886Z" fill="#0F2931" stroke="#006266" stroke-width="0.377953"/>
<path d="M300.045 103.618L311.831 111.717L291.943 122.856L283.014 109.293L300.045 103.618Z" fill="#0F2931" stroke="#006266" stroke-width="0.377953"/>
<path d="M311.453 147.6L304.91 151.81L307.438 154.849L306.942 160.27L314.382 157.677L311.453 147.6Z" fill="#0F2931" stroke="#006266" stroke-width="0.377953"/>
<path d="M317.926 133.613L313.91 142.796L318.374 150.492L317.807 159.951L330.563 154.679L325.531 143.115L317.926 133.613Z" fill="#0F2931" stroke="#006266" stroke-width="0.377953"/>
<path d="M175.775 234.058L185.932 232.952L191.672 236.991L192.664 240.945L175.775 234.058Z" fill="#0F2931" stroke="#006266" stroke-width="0.377953"/>
<path d="M201.002 237.565L207.758 239.075L204.026 243.837L197.412 242.391L201.002 237.565Z" fill="#0F2931" stroke="#006266" stroke-width="0.377953"/>
<path d="M327.558 180.64L310.338 182.745L311.496 196.967L326.849 197.583L347.376 181.618L357.556 191.057L361.265 197.796L365.871 192.205L357.462 181.555L369.201 183.383L371.398 196.18L376.902 197.179L379.784 191.206L384.886 202.005L394.334 203.068L389.468 208.234L350.612 206.108L337.857 198.667L304.528 223.114L304.386 259.636L337.715 263.59L352.502 288.359L362.068 337.551L386.87 334.574L399.389 307.98L411.554 291.293L406.239 280.749L431.23 248.479L419.963 251.923L408.696 244.822L396.767 217.166L419.396 245.226L442.804 231.982L421.593 217.251L451.402 227.412L471.031 256.025L496.782 233.194L507.505 244.907L517.733 266.867L516.859 248.564L529.449 251.157L528.906 235.15L554.464 219.355L557.015 197.523L565.731 206.877L573.03 199.691L570.884 185.556L589.497 165.318L587.867 150.523L617.677 132.326L615.102 163.703L632.629 140.68L667.233 117.083L591.694 82.6027L534.295 77.6495L521.729 63.2388L404.971 102.779L366.625 81.6696L341.54 121.507L338.847 140.3L350.28 133.646L356.209 141.766L373.216 110.262L368.987 132.115L380.94 132.328L359.657 151.588L352.358 152.736L348.012 143.106L344.8 145.147L344.54 151.715L335.588 157.668L326.565 167.872L328.1 178.947L327.558 180.64Z" fill="#0F2931" stroke="#006266" stroke-width="0.377953"/>
<path d="M359.501 199.423L355.096 200.204L360.517 203.153L359.501 199.423Z" fill="#0F2931" stroke="#006266" stroke-width="0.377953"/>
<path d="M351.092 194.028L346.48 193.21L346.037 198.487L351.092 194.028Z" fill="#0F2931" stroke="#006266" stroke-width="0.377953"/>
<path d="M348.151 189.617L345.63 186.476L344.343 191.759L348.151 189.617Z" fill="#0F2931" stroke="#006266" stroke-width="0.377953"/>
<path d="M435.02 290.705L424.23 302.535L426.568 319.551L438.126 305.466L435.02 290.705Z" fill="#0F2931" stroke="#006266" stroke-width="0.377953"/>
<path d="M473.502 260.506L481.002 255.531L478.981 264.956L473.502 260.506Z" fill="#0F2931" stroke="#006266" stroke-width="0.377953"/>
<path d="M523.525 268.052L546.34 287.669L573.215 286.662L523.525 268.052Z" fill="#0F2931" stroke="#006266" stroke-width="0.377953"/>
<path d="M547.81 259.424L558.567 249.819L560.17 270.442L547.81 259.424Z" fill="#0F2931" stroke="#006266" stroke-width="0.377953"/>
<path d="M572.931 252.284L580.898 238.68L596.297 259.98L572.931 252.284Z" fill="#0F2931" stroke="#006266" stroke-width="0.377953"/>
<path d="M599.989 270.653L607.688 283.55L628.166 286.301L599.989 270.653Z" fill="#0F2931" stroke="#006266" stroke-width="0.377953"/>
<path d="M602.36 297.319L556.546 307.947L539.075 333.17L573.114 338.266L604.081 363.526L621.117 326.307L602.36 297.319Z" fill="#0F2931" stroke="#006266" stroke-width="0.377953"/>
<path d="M643.647 341.273L647.255 354.891L638.452 382.355L669.135 356.56L643.647 341.273Z" fill="#0F2931" stroke="#006266" stroke-width="0.377953"/>
<path d="M607.219 178.581L597.247 197.927L580.044 216.506L596.529 212.087L617.491 193.071L623.921 181.873L607.219 178.581Z" fill="#0F2931" stroke="#006266" stroke-width="0.377953"/>
<path d="M395.253 198.7L396.807 186.389L410.586 186.87L412.14 199.962L395.253 198.7Z" fill="#121023" stroke="#006266" stroke-width="0.377953"/>
<path d="M424.533 187.486L436.909 183.442L438.964 206.08L430.095 205.765L424.533 187.486Z" fill="#121023" stroke="#006266" stroke-width="0.377953"/>
</g>
<defs>
<clipPath id="clip0_12_2">
<rect width="704" height="405" fill="white"/>
</clipPath>
</defs>
</svg>
