<?xml version="1.0" encoding="UTF-8" standalone="no"?>
<!-- Created with Inkscape (http://www.inkscape.org/) -->

<svg
   width="132.29167mm"
   height="132.29166mm"
   viewBox="0 0 132.29167 132.29166"
   version="1.1"
   id="svg5"
   xmlns="http://www.w3.org/2000/svg"
   xmlns:svg="http://www.w3.org/2000/svg">
  <defs
     id="defs2" />
  <g
     id="layer1"
     transform="translate(-57.289818,-446.58603)">
    <g
       id="g2234"
       transform="matrix(0.53423742,0,0,0.53423742,-98.409505,186.5147)">
      <circle
         style="fill:none;stroke:#000000;stroke-width:4;stroke-linecap:square;stroke-dasharray:none"
         id="path354"
         cx="415.25574"
         cy="610.62213"
         r="121.81355" />
      <g
         id="g2195"
         style="fill:#aeaeae;fill-opacity:1"
         transform="matrix(1.5798825,0,0,1.5798825,-718.94733,-308.32011)">
        <path
           id="path2054"
           style="fill:#aeaeae;fill-opacity:1;stroke:none;stroke-width:1;stroke-linecap:square"
           d="m 743.21875,648.10156 c 14.59809,-5.41202 27.24768,-15.84251 35.30704,-29.21428 0.77534,-1.28104 1.5098,-2.58712 2.19882,-3.91658 -23.54557,0 -47.09115,0 -70.63672,0 11.04362,11.04362 22.08724,22.08724 33.13086,33.13086 z" />
        <path
           id="path2054-3"
           style="fill:#aeaeae;fill-opacity:1;stroke:none;stroke-width:1;stroke-linecap:square"
           d="m 688.81055,646.54297 c 11.86511,5.4242 25.14224,7.43696 38.05121,5.72943 4.01987,-0.52342 8.01034,-1.39928 11.89801,-2.62982 -16.64974,-16.64974 -33.29948,-33.29948 -49.94922,-49.94922 0,15.61654 0,31.23307 0,46.84961 z" />
        <path
           id="path2054-2"
           style="fill:#aeaeae;fill-opacity:1;stroke:none;stroke-width:1;stroke-linecap:square"
           d="m 651.44531,606.97461 c 4.85026,13.08829 13.79559,24.71136 25.27018,32.72957 2.50963,1.76336 5.13647,3.36069 7.86068,4.77043 0,-23.54362 0,-47.08724 0,-70.63086 -11.04362,11.04362 -22.08724,22.08724 -33.13086,33.13086 z" />
        <path
           id="path2054-3-4"
           style="fill:#aeaeae;fill-opacity:1;stroke:none;stroke-width:1;stroke-linecap:square"
           d="m 651.93555,554.9707 c -3.8632,9.51249 -5.70218,19.8588 -5.16016,30.1211 0.29661,5.85995 1.35171,11.82496 3.13281,17.41992 16.64844,-16.64844 33.29688,-33.29688 49.94532,-49.94531 -15.61589,0 -31.23178,0 -46.84766,0 -0.35677,0.80143 -0.71354,1.60286 -1.07031,2.40429 z" />
        <path
           id="path2054-7"
           style="fill:#aeaeae;fill-opacity:1;stroke:none;stroke-width:1;stroke-linecap:square"
           d="m 690.11914,516.14648 c -13.60482,5.69565 -25.37474,15.74759 -32.94904,28.42175 -0.72051,1.19672 -1.45128,2.49055 -2.10565,3.7638 23.54623,0 47.09245,0 70.63867,0 -11.04231,-11.04232 -22.08463,-22.08463 -33.12695,-33.12695 -0.81901,0.3138 -1.63802,0.6276 -2.45703,0.9414 z" />
        <path
           id="path2054-3-6"
           style="fill:#aeaeae;fill-opacity:1;stroke:none;stroke-width:1;stroke-linecap:square"
           d="m 716.52344,510.45312 c -6.60614,0.14353 -13.18875,1.21198 -19.49024,3.20899 16.64909,16.64909 33.29818,33.29818 49.94727,49.94727 0,-15.61654 0,-31.23308 0,-46.84961 -4.75356,-2.17309 -9.88831,-3.84358 -15.01125,-4.8914 -5.07556,-1.04313 -10.26534,-1.5127 -15.44578,-1.41525 z" />
        <path
           id="path2054-2-5"
           style="fill:#aeaeae;fill-opacity:1;stroke:none;stroke-width:1;stroke-linecap:square"
           d="m 751.21484,589.45898 c 11.04427,-11.04427 22.08855,-22.08854 33.13282,-33.13281 -5.81477,-15.7115 -17.50052,-29.16896 -32.28782,-37.05794 -0.59663,-0.41539 -1.04688,-0.55217 -0.845,0.35794 0,23.27761 0,46.55521 0,69.83281 z" />
        <path
           id="path2054-3-4-7"
           style="fill:#aeaeae;fill-opacity:1;stroke:none;stroke-width:1;stroke-linecap:square"
           d="m 735.9375,610.73633 c 15.62044,0 31.24089,0 46.86133,0 4.89194,-10.61356 7.0026,-22.57375 6.13588,-34.1966 -0.39892,-5.35833 -1.42696,-10.6679 -3.03432,-15.76629 -16.6543,16.65429 -33.30859,33.30859 -49.96289,49.96289 z" />
      </g>
      <circle
         style="fill:#000000;fill-opacity:1;stroke:#000000;stroke-width:1;stroke-linecap:square"
         id="path1092"
         cx="415.25574"
         cy="610.62213"
         r="31.962515" />
      <path
         id="path354-3"
         style="fill:#000000;fill-opacity:1;stroke:#000000;stroke-width:1.78522;stroke-linecap:square"
         d="m 415.25527,652.38654 a 49.088745,49.088745 0 0 0 -49.08847,49.08847 49.088745,49.088745 0 0 0 0.0351,0.9338 h -0.0124 v 19.61585 a 121.81355,121.81355 0 0 0 49.06626,10.41125 121.81355,121.81355 0 0 0 49.06574,-10.41125 v -19.61585 h -0.0124 a 49.088745,49.088745 0 0 0 0.0351,-0.9338 49.088745,49.088745 0 0 0 -49.089,-49.08847 z" />
    </g>
  </g>
</svg>
